M48
;Layer_Color=9474304
;FILE_FORMAT=4:2
METRIC
;TYPE=PLATED
T1F00S00C0.15
%
T01
X005453Y007938
X005613Y007981
X005690Y008049
X005850Y007995
X005926Y007995
X005972Y008004
X006033Y008037
X006076Y008006
X006119Y007991
X006190Y007940
X006294Y008042
X006281Y008115
X006347Y008115
X006149Y008153
X005953Y008285
X006000Y008359
X005847Y008318
X005799Y008359
X005618Y008367
X005453Y008412
X005540Y008125
X006538Y007995
X006634Y007965
X006655Y008080
X006645Y008300
X006734Y008308
X006843Y008300
X006972Y008306
X006940Y008237
X006888Y008120
X006891Y007965
X006840Y008006
X007036Y008065
X007061Y008164
X006540Y008298
M30
