%FSLAX42Y42*%
%MOMM*%
G71*
G01*
G75*
%ADD10C,0.11*%
%ADD11C,0.17*%
%ADD12C,0.14*%
%ADD13C,0.20*%
%ADD14R,1.00X0.82*%
%ADD15R,0.60X0.40*%
%ADD16R,1.70X1.00*%
%ADD17R,0.25X0.50*%
%ADD18R,0.50X0.25*%
%ADD19R,1.50X1.50*%
%ADD20R,0.40X0.40*%
%ADD21R,1.80X4.00*%
%ADD22R,0.70X0.28*%
%ADD23R,0.70X0.40*%
%ADD24C,0.25*%
%ADD25C,0.15*%
%ADD26C,0.35*%
%ADD27R,1.00X1.00*%
%ADD28C,0.25*%
%ADD29C,0.10*%
%ADD30C,0.15*%
%ADD31R,1.04X0.86*%
%ADD32R,0.64X0.44*%
%ADD33R,1.74X1.04*%
%ADD34R,0.29X0.54*%
%ADD35R,0.54X0.29*%
%ADD36R,1.54X1.54*%
%ADD37R,0.44X0.44*%
%ADD38R,1.84X4.04*%
%ADD39R,0.74X0.32*%
%ADD40R,0.74X0.44*%
%ADD41R,1.04X1.04*%
D24*
X4039Y8455D02*
X5032D01*
X4039Y7895D02*
X5032D01*
X4064Y7641D02*
Y7895D01*
Y8455D02*
Y8709D01*
X4013Y7743D02*
X4064Y7895D01*
X4115Y7743D01*
X4064Y8455D02*
X4115Y8607D01*
X4013D02*
X4064Y8455D01*
X7215Y6909D02*
Y7862D01*
X5065Y6909D02*
Y7862D01*
X6813Y6934D02*
X7215D01*
X5065D02*
X5386D01*
X7063Y6985D02*
X7215Y6934D01*
X7063Y6883D02*
X7215Y6934D01*
X5065D02*
X5217Y6883D01*
X5065Y6934D02*
X5217Y6985D01*
D25*
X3729Y7627D02*
Y7525D01*
X3805D01*
X3780Y7576D01*
Y7601D01*
X3805Y7627D01*
X3856D01*
X3881Y7601D01*
Y7550D01*
X3856Y7525D01*
X3881Y7677D02*
X3856D01*
Y7703D01*
X3881D01*
Y7677D01*
X3729Y7906D02*
X3754Y7855D01*
X3805Y7804D01*
X3856D01*
X3881Y7830D01*
Y7880D01*
X3856Y7906D01*
X3830D01*
X3805Y7880D01*
Y7804D01*
X3754Y7957D02*
X3729Y7982D01*
Y8033D01*
X3754Y8058D01*
X3856D01*
X3881Y8033D01*
Y7982D01*
X3856Y7957D01*
X3754D01*
X3881Y8312D02*
X3830Y8261D01*
X3780D01*
X3729Y8312D01*
X3881Y8388D02*
X3780D01*
Y8414D01*
X3805Y8439D01*
X3881D01*
X3805D01*
X3780Y8464D01*
X3805Y8490D01*
X3881D01*
Y8541D02*
X3780D01*
Y8566D01*
X3805Y8591D01*
X3881D01*
X3805D01*
X3780Y8617D01*
X3805Y8642D01*
X3881D01*
Y8693D02*
X3830Y8744D01*
X3780D01*
X3729Y8693D01*
X5528Y6843D02*
X5426D01*
X5528Y6944D01*
Y6970D01*
X5503Y6995D01*
X5452D01*
X5426Y6970D01*
X5579Y6843D02*
X5630D01*
X5604D01*
Y6995D01*
X5579Y6970D01*
X5706Y6843D02*
Y6868D01*
X5731D01*
Y6843D01*
X5706D01*
X5934Y6995D02*
X5833D01*
Y6919D01*
X5884Y6944D01*
X5909D01*
X5934Y6919D01*
Y6868D01*
X5909Y6843D01*
X5858D01*
X5833Y6868D01*
X5985Y6970D02*
X6010Y6995D01*
X6061D01*
X6087Y6970D01*
Y6868D01*
X6061Y6843D01*
X6010D01*
X5985Y6868D01*
Y6970D01*
X6341Y6843D02*
X6290Y6894D01*
Y6944D01*
X6341Y6995D01*
X6417Y6843D02*
Y6944D01*
X6442D01*
X6468Y6919D01*
Y6843D01*
Y6919D01*
X6493Y6944D01*
X6518Y6919D01*
Y6843D01*
X6569D02*
Y6944D01*
X6594D01*
X6620Y6919D01*
Y6843D01*
Y6919D01*
X6645Y6944D01*
X6671Y6919D01*
Y6843D01*
X6721D02*
X6772Y6894D01*
Y6944D01*
X6721Y6995D01*
D29*
X6884Y7965D02*
X6899D01*
X6891Y7958D02*
Y7973D01*
X5918Y7995D02*
X5933D01*
X5926Y7987D02*
Y8002D01*
X6340Y8115D02*
X6355D01*
X6347Y8107D02*
Y8122D01*
X6530Y7995D02*
X6545D01*
X6538Y7988D02*
Y8003D01*
X6068Y8006D02*
X6083D01*
X6076Y7999D02*
Y8014D01*
X5682Y8049D02*
X5697D01*
X5690Y8042D02*
Y8057D01*
X6274Y8115D02*
X6289D01*
X6281Y8108D02*
Y8123D01*
X6637Y8300D02*
X6652D01*
X6645Y8293D02*
Y8308D01*
X6836Y8300D02*
X6851D01*
X6843Y8293D02*
Y8308D01*
X6965Y8306D02*
X6980D01*
X6972Y8298D02*
Y8313D01*
X6932Y8237D02*
X6947D01*
X6940Y8230D02*
Y8245D01*
X5532Y8125D02*
X5547D01*
X5540Y8118D02*
Y8133D01*
X5611Y8367D02*
X5626D01*
X5618Y8359D02*
Y8374D01*
X5606Y7981D02*
X5621D01*
X5613Y7973D02*
Y7988D01*
X5843Y7995D02*
X5858D01*
X5850Y7988D02*
Y8003D01*
X6647Y8080D02*
X6662D01*
X6655Y8072D02*
Y8087D01*
X6142Y8153D02*
X6157D01*
X6149Y8146D02*
Y8161D01*
X6833Y8006D02*
X6848D01*
X6840Y7999D02*
Y8014D01*
X6182Y7940D02*
X6197D01*
X6190Y7933D02*
Y7948D01*
X6025Y8037D02*
X6040D01*
X6033Y8029D02*
Y8044D01*
X6533Y8298D02*
X6548D01*
X6540Y8291D02*
Y8306D01*
X5791Y8359D02*
X5806D01*
X5799Y8352D02*
Y8367D01*
X6881Y8120D02*
X6896D01*
X6888Y8113D02*
Y8128D01*
X5446Y7938D02*
X5461D01*
X5453Y7930D02*
Y7945D01*
X5446Y8412D02*
X5461D01*
X5453Y8405D02*
Y8420D01*
X7054Y8164D02*
X7069D01*
X7061Y8156D02*
Y8171D01*
X5946Y8285D02*
X5961D01*
X5953Y8278D02*
Y8293D01*
X7028Y8065D02*
X7043D01*
X7036Y8057D02*
Y8072D01*
X5840Y8318D02*
X5855D01*
X5847Y8311D02*
Y8326D01*
X6627Y7965D02*
X6642D01*
X6634Y7957D02*
Y7972D01*
X5992Y8359D02*
X6007D01*
X6000Y8352D02*
Y8367D01*
X5964Y8004D02*
X5979D01*
X5972Y7996D02*
Y8011D01*
X6287Y8042D02*
X6302D01*
X6294Y8034D02*
Y8049D01*
X6726Y8308D02*
X6741D01*
X6734Y8301D02*
Y8316D01*
X6111Y7991D02*
X6126D01*
X6119Y7983D02*
Y7998D01*
M02*
