%FSLAX42Y42*%
%MOMM*%
G71*
G01*
G75*
G04 Layer_Physical_Order=1*
G04 Layer_Color=255*
%ADD10C,0.11*%
%ADD11C,0.17*%
%ADD12C,0.14*%
%ADD13C,0.20*%
%ADD14R,1.00X0.82*%
%ADD15R,0.60X0.40*%
%ADD16R,1.70X1.00*%
%ADD17R,0.25X0.50*%
%ADD18R,0.50X0.25*%
%ADD19R,1.50X1.50*%
%ADD20R,0.40X0.40*%
%ADD21R,1.80X4.00*%
%ADD22R,0.70X0.28*%
%ADD23R,0.70X0.40*%
%ADD24C,0.25*%
%ADD25C,0.15*%
%ADD26C,0.35*%
G36*
X5429Y8426D02*
X5427Y8423D01*
X5425Y8412D01*
X5427Y8402D01*
X5431Y8396D01*
X5425Y8385D01*
X5433D01*
Y8175D01*
Y7965D01*
X5425D01*
X5431Y7954D01*
X5427Y7948D01*
X5425Y7938D01*
X5427Y7927D01*
X5429Y7924D01*
X5423Y7913D01*
X5195D01*
Y7942D01*
X5135D01*
Y7968D01*
X5195D01*
Y8001D01*
X5285D01*
Y8049D01*
D01*
Y8049D01*
X5285Y8049D01*
Y8051D01*
X5285D01*
Y8099D01*
D01*
Y8099D01*
X5285Y8099D01*
Y8101D01*
X5285D01*
Y8149D01*
D01*
Y8149D01*
X5285Y8149D01*
Y8151D01*
X5285D01*
Y8199D01*
D01*
Y8199D01*
X5285Y8199D01*
Y8201D01*
X5285D01*
Y8249D01*
D01*
Y8249D01*
X5285Y8249D01*
Y8251D01*
X5285D01*
Y8299D01*
D01*
Y8299D01*
X5285Y8299D01*
Y8301D01*
X5285D01*
Y8349D01*
X5240D01*
Y8382D01*
X5240Y8382D01*
X5239Y8390D01*
X5234Y8397D01*
X5234Y8397D01*
X5221Y8409D01*
X5215Y8414D01*
X5207Y8415D01*
X5207D01*
Y8416D01*
X5196Y8418D01*
X5195Y8419D01*
Y8437D01*
X5423D01*
X5429Y8426D01*
D02*
G37*
G36*
X6763Y8090D02*
X6828D01*
Y8043D01*
X6827D01*
X6825Y8034D01*
X6820Y8026D01*
X6820Y8026D01*
X6814Y8017D01*
X6812Y8006D01*
X6814Y7995D01*
X6820Y7986D01*
X6829Y7980D01*
X6840Y7978D01*
X6851Y7980D01*
X6855Y7983D01*
X6866Y7976D01*
X6863Y7965D01*
X6866Y7954D01*
X6872Y7945D01*
X6881Y7939D01*
X6891Y7937D01*
X6902Y7939D01*
X6911Y7945D01*
X6917Y7954D01*
X6919Y7963D01*
X6926Y7967D01*
X6936Y7967D01*
X6936Y7967D01*
X6936Y7966D01*
Y7945D01*
X6938Y7938D01*
X6942Y7932D01*
X6948Y7928D01*
X6955Y7926D01*
X7033D01*
X7033Y7925D01*
X7033D01*
Y7922D01*
X7024Y7913D01*
X6435D01*
Y7965D01*
X6520D01*
Y7965D01*
X6527Y7969D01*
X6538Y7967D01*
X6549Y7969D01*
X6558Y7975D01*
X6564Y7984D01*
X6565Y7991D01*
X6577Y7995D01*
X6606Y7967D01*
X6605Y7966D01*
D01*
X6605Y7966D01*
Y7966D01*
X6605Y7966D01*
Y7966D01*
X6605Y7966D01*
X6605Y7966D01*
Y7966D01*
D01*
D01*
X6606Y7965D01*
D01*
Y7965D01*
X6606D01*
X6609Y7954D01*
X6615Y7945D01*
X6624Y7939D01*
X6634Y7937D01*
X6645Y7939D01*
X6654Y7945D01*
X6660Y7954D01*
X6663Y7965D01*
X6660Y7975D01*
X6654Y7985D01*
X6645Y7991D01*
X6634Y7993D01*
Y7993D01*
Y7993D01*
D01*
D01*
D01*
D01*
D01*
D01*
Y7993D01*
X6633Y7994D01*
X6633Y7994D01*
D01*
X6633Y7994D01*
X6633Y7994D01*
D01*
D01*
X6633D01*
D01*
D01*
D01*
D01*
D01*
X6633D01*
D01*
X6633Y7994D01*
X6632Y7994D01*
X6592Y8034D01*
Y8046D01*
X6611Y8066D01*
X6629Y8069D01*
X6627Y8080D01*
X6627Y8081D01*
X6638Y8092D01*
X6679D01*
X6681Y8091D01*
X6683Y8080D01*
X6691Y8090D01*
X6737D01*
Y8175D01*
X6763D01*
Y8090D01*
D02*
G37*
G36*
X7085Y8408D02*
X7145D01*
Y8382D01*
X7085D01*
Y8344D01*
X7085Y8344D01*
X7085Y8336D01*
X7085D01*
Y8332D01*
X7079Y8301D01*
D01*
Y8301D01*
Y8301D01*
D01*
X7079Y8301D01*
X7079Y8301D01*
X7073Y8300D01*
X7068Y8296D01*
X7064Y8291D01*
X7063Y8285D01*
Y8265D01*
X7038D01*
Y8235D01*
X7025D01*
Y8222D01*
X6980D01*
Y8240D01*
X6967Y8239D01*
X6968Y8237D01*
X6966Y8226D01*
X6964Y8225D01*
X6952D01*
Y8213D01*
X6950Y8211D01*
X6940Y8209D01*
X6942Y8196D01*
X6898Y8152D01*
X6897Y8152D01*
X6897Y8152D01*
X6897Y8152D01*
X6889Y8148D01*
X6888Y8148D01*
X6878Y8146D01*
X6870Y8141D01*
X6859Y8147D01*
Y8271D01*
X6860D01*
X6860Y8272D01*
X6863Y8280D01*
X6863Y8280D01*
X6869Y8289D01*
X6871Y8300D01*
X6869Y8311D01*
X6863Y8320D01*
X6854Y8326D01*
X6843Y8328D01*
X6843Y8328D01*
X6835Y8331D01*
X6834Y8332D01*
X6834Y8332D01*
X6834Y8332D01*
X6800Y8366D01*
X6795Y8370D01*
X6788Y8371D01*
X6525D01*
X6525Y8371D01*
X6525D01*
Y8371D01*
X6520Y8372D01*
Y8385D01*
X6430D01*
Y8385D01*
X6429D01*
X6420Y8394D01*
Y8397D01*
X6393D01*
Y8380D01*
X6420D01*
Y8380D01*
X6421D01*
X6430Y8371D01*
Y8360D01*
X6420D01*
Y8360D01*
X6340D01*
D01*
D01*
X6340Y8360D01*
X6335Y8360D01*
Y8360D01*
D01*
X6255D01*
X6253Y8362D01*
X6252Y8363D01*
X6251Y8364D01*
X6252Y8364D01*
X6249Y8366D01*
X6248Y8367D01*
X6248Y8367D01*
X6245Y8370D01*
Y8373D01*
X6241D01*
X6238Y8374D01*
X6225Y8377D01*
X6223Y8376D01*
X6222Y8376D01*
Y8376D01*
X6213Y8374D01*
X6211Y8373D01*
X6211Y8373D01*
X6210Y8373D01*
X6175D01*
Y8328D01*
X6175Y8328D01*
X6175Y8322D01*
X6175D01*
Y8281D01*
X6175Y8281D01*
X6175D01*
X6175Y8277D01*
Y8272D01*
D01*
D01*
D01*
X6175D01*
D01*
Y8231D01*
X6175Y8231D01*
X6175D01*
X6175Y8227D01*
Y8222D01*
D01*
D01*
D01*
X6175D01*
D01*
Y8213D01*
X6210D01*
Y8187D01*
X6175D01*
Y8183D01*
X6164Y8177D01*
X6162Y8178D01*
Y8153D01*
Y8129D01*
X6160Y8127D01*
X6169Y8125D01*
X6175Y8119D01*
Y8077D01*
X6175Y8078D01*
X6175Y8072D01*
D01*
X6175Y8069D01*
X6139D01*
X6121Y8087D01*
X6115Y8091D01*
X6113Y8091D01*
X6107Y8092D01*
X6061D01*
Y8160D01*
X5891D01*
Y8118D01*
X5879Y8114D01*
X5797Y8196D01*
X5797Y8196D01*
D01*
X5796Y8198D01*
X5796Y8198D01*
X5796Y8198D01*
X5796Y8198D01*
X5792Y8200D01*
X5786Y8207D01*
X5786Y8207D01*
X5785Y8208D01*
X5779Y8213D01*
X5775Y8216D01*
Y8222D01*
D01*
Y8222D01*
X5775Y8222D01*
Y8227D01*
X5775D01*
Y8237D01*
X5740D01*
Y8263D01*
X5775D01*
Y8272D01*
D01*
Y8272D01*
X5775Y8272D01*
Y8277D01*
X5775D01*
Y8322D01*
D01*
Y8322D01*
X5775Y8322D01*
Y8328D01*
X5775D01*
Y8329D01*
X5786Y8334D01*
X5788Y8333D01*
X5799Y8331D01*
X5810Y8333D01*
X5810Y8334D01*
X5821Y8327D01*
X5819Y8318D01*
X5821Y8308D01*
X5827Y8299D01*
X5836Y8293D01*
X5847Y8290D01*
X5858Y8293D01*
X5867Y8299D01*
X5873Y8308D01*
X5875Y8318D01*
X5873Y8329D01*
X5867Y8338D01*
X5867Y8339D01*
X5867Y8340D01*
X5867Y8340D01*
X5867Y8340D01*
X5866Y8341D01*
Y8351D01*
X5867Y8355D01*
X5866D01*
Y8375D01*
X5873Y8375D01*
D01*
D01*
X5877D01*
D01*
X5884Y8375D01*
Y8339D01*
X5885Y8333D01*
X5889Y8328D01*
X5922Y8295D01*
X5922Y8295D01*
X5921Y8294D01*
X5922Y8294D01*
X5925Y8286D01*
X5925Y8285D01*
X5927Y8275D01*
X5931Y8269D01*
X5925Y8258D01*
X5891D01*
Y8185D01*
X5963D01*
Y8258D01*
X5981D01*
X5975Y8269D01*
X5979Y8275D01*
X5981Y8285D01*
X5979Y8296D01*
X5973Y8305D01*
X5964Y8311D01*
X5953Y8314D01*
X5953Y8313D01*
X5945Y8317D01*
X5944Y8318D01*
X5944Y8317D01*
X5944Y8317D01*
X5916Y8345D01*
Y8375D01*
X5922Y8375D01*
D01*
D01*
X5928D01*
Y8375D01*
X5965D01*
X5973Y8365D01*
X5972Y8359D01*
X5974Y8348D01*
X5980Y8339D01*
X5989Y8333D01*
X6000Y8331D01*
X6011Y8333D01*
X6020Y8339D01*
X6026Y8348D01*
X6028Y8359D01*
X6026Y8370D01*
D01*
X6027Y8375D01*
X6028Y8375D01*
D01*
D01*
X6028Y8375D01*
X6072D01*
Y8375D01*
X6072D01*
X6072Y8375D01*
X6077D01*
Y8375D01*
X6122D01*
Y8375D01*
X6122D01*
X6122Y8375D01*
X6128D01*
Y8375D01*
X6172D01*
Y8437D01*
X6255D01*
Y8423D01*
X6295D01*
Y8410D01*
X6308D01*
Y8380D01*
X6335D01*
Y8380D01*
X6335D01*
X6335Y8380D01*
X6340Y8380D01*
Y8380D01*
D01*
X6367D01*
Y8410D01*
X6380D01*
Y8423D01*
X6420D01*
Y8437D01*
X7085D01*
Y8408D01*
D02*
G37*
%LPC*%
G36*
X6061Y8258D02*
X5988D01*
Y8185D01*
X6061D01*
Y8258D01*
D02*
G37*
G36*
X6137Y8141D02*
X6125D01*
X6130Y8134D01*
X6137Y8129D01*
Y8141D01*
D02*
G37*
G36*
Y8178D02*
X6130Y8173D01*
X6125Y8166D01*
X6137D01*
Y8178D01*
D02*
G37*
G36*
X5407Y8162D02*
X5320D01*
Y7965D01*
X5407D01*
Y8162D01*
D02*
G37*
G36*
X6642Y8067D02*
X6630D01*
X6635Y8060D01*
X6642Y8055D01*
Y8067D01*
D02*
G37*
G36*
X6679D02*
X6667D01*
Y8055D01*
X6675Y8060D01*
X6679Y8067D01*
D02*
G37*
G36*
X6952Y8262D02*
Y8250D01*
X6964D01*
X6960Y8257D01*
X6952Y8262D01*
D02*
G37*
G36*
X7070Y8385D02*
X6980D01*
Y8367D01*
X6979Y8366D01*
X6968Y8355D01*
X6965Y8353D01*
X6966Y8353D01*
X6961Y8348D01*
X6958Y8343D01*
X6956Y8337D01*
Y8335D01*
X6956D01*
X6956Y8334D01*
X6953Y8326D01*
X6952Y8326D01*
X6946Y8317D01*
X6944Y8306D01*
X6946Y8295D01*
X6952Y8286D01*
X6962Y8280D01*
X6972Y8278D01*
X6983Y8280D01*
X6992Y8286D01*
X6998Y8295D01*
X7000Y8306D01*
X6998Y8317D01*
X7003Y8325D01*
X7070D01*
Y8385D01*
D02*
G37*
G36*
X6282Y8397D02*
X6255D01*
Y8380D01*
X6282D01*
Y8397D01*
D02*
G37*
G36*
X6927Y8262D02*
X6920Y8257D01*
X6915Y8250D01*
X6927D01*
Y8262D01*
D02*
G37*
G36*
X5407Y8385D02*
X5320D01*
Y8188D01*
X5407D01*
Y8385D01*
D02*
G37*
G36*
X6927Y8225D02*
X6915D01*
X6920Y8217D01*
X6927Y8213D01*
Y8225D01*
D02*
G37*
G36*
X7012Y8265D02*
X6980D01*
Y8248D01*
X7012D01*
Y8265D01*
D02*
G37*
%LPD*%
D10*
X6118Y7979D02*
G03*
X6100Y7972I-1J-24D01*
G01*
X6100Y7972D02*
G03*
X6107Y7990I-17J17D01*
G01*
X6722Y8308D02*
G03*
X6713Y8329I-29J0D01*
G01*
X6713Y8329D02*
G03*
X6734Y8320I20J20D01*
G01*
X6303Y8033D02*
G03*
X6294Y8013I20J-20D01*
G01*
D02*
G03*
X6286Y8033I-29J0D01*
G01*
X5960Y8004D02*
G03*
X5951Y8024I-29J0D01*
G01*
X5951Y8024D02*
G03*
X5972Y8016I20J20D01*
G01*
X5992Y8368D02*
G03*
X6000Y8388I-20J20D01*
G01*
D02*
G03*
X6008Y8368I29J0D01*
G01*
X5839Y8327D02*
G03*
X5850Y8355I-28J28D01*
G01*
Y8340D02*
G03*
X5856Y8327I19J0D01*
G01*
X7044Y8073D02*
G03*
X7065Y8065I20J20D01*
G01*
D02*
G03*
X7044Y8057I0J-29D01*
G01*
X5941Y8285D02*
G03*
X5933Y8306I-29J0D01*
G01*
X5933Y8306D02*
G03*
X5953Y8297I20J20D01*
G01*
X7091Y8175D02*
G03*
X7062Y8163I0J-41D01*
G01*
X7118Y8175D02*
G03*
X7070Y8155I0J-68D01*
G01*
X6888Y8132D02*
G03*
X6909Y8141I0J29D01*
G01*
X6909Y8141D02*
G03*
X6900Y8120I20J-20D01*
G01*
X5790Y8368D02*
G03*
X5800Y8391I-23J23D01*
G01*
Y8385D02*
G03*
X5807Y8368I25J0D01*
G01*
X6540Y8310D02*
G03*
X6574Y8324I0J47D01*
G01*
X6540Y8286D02*
G03*
X6520Y8278I0J-29D01*
G01*
X6520Y8278D02*
G03*
X6529Y8298I-20J20D01*
G01*
X6041Y8045D02*
G03*
X6055Y8039I14J14D01*
G01*
X6068D02*
G03*
X6041Y8028I0J-38D01*
G01*
X6181Y7932D02*
G03*
X6161Y7940I-20J-20D01*
G01*
D02*
G03*
X6181Y7949I0J29D01*
G01*
X6832Y8015D02*
G03*
X6843Y8043I-28J28D01*
G01*
Y8027D02*
G03*
X6849Y8015I18J0D01*
G01*
X5858Y7987D02*
G03*
X5850Y7966I20J-20D01*
G01*
D02*
G03*
X5842Y7987I-29J0D01*
G01*
X5600Y8006D02*
G03*
X5614Y7982I28J0D01*
G01*
X5600Y8025D02*
G03*
X5619Y7991I39J0D01*
G01*
X5627Y8375D02*
G03*
X5647Y8367I20J20D01*
G01*
D02*
G03*
X5627Y8358I0J-29D01*
G01*
X5548Y8134D02*
G03*
X5570Y8125I22J22D01*
G01*
X5568D02*
G03*
X5548Y8117I0J-27D01*
G01*
X6964Y8314D02*
G03*
X6972Y8335I-20J20D01*
G01*
D02*
G03*
X6981Y8314I29J0D01*
G01*
X6852Y8292D02*
G03*
X6843Y8271I20J-20D01*
G01*
D02*
G03*
X6835Y8292I-29J0D01*
G01*
X6831Y8300D02*
G03*
X6823Y8321I-29J0D01*
G01*
X6823Y8321D02*
G03*
X6843Y8312I20J20D01*
G01*
X6273Y8124D02*
G03*
X6281Y8144I-20J20D01*
G01*
D02*
G03*
X6290Y8124I29J0D01*
G01*
X5698Y8058D02*
G03*
X5717Y8050I19J19D01*
G01*
X5720D02*
G03*
X5698Y8041I0J-31D01*
G01*
X6076Y7994D02*
G03*
X6055Y7986I0J-29D01*
G01*
X6055Y7986D02*
G03*
X6064Y8006I-20J20D01*
G01*
X6529Y7987D02*
G03*
X6509Y7995I-20J-20D01*
G01*
D02*
G03*
X6529Y8003I0J29D01*
G01*
X6356Y8123D02*
G03*
X6376Y8115I20J20D01*
G01*
D02*
G03*
X6356Y8107I0J-29D01*
G01*
X5938Y7995D02*
G03*
X5946Y7974I29J0D01*
G01*
X5946Y7974D02*
G03*
X5926Y7983I-20J-20D01*
G01*
X7009Y8352D02*
G03*
X6977Y8342I-7J-35D01*
G01*
X6500Y8005D02*
G03*
X6525Y7995I25J25D01*
G01*
D02*
G03*
X6500Y7985I0J-35D01*
G01*
X6450Y8105D02*
G03*
X6425Y8115I-25J-25D01*
G01*
D02*
G03*
X6450Y8125I0J35D01*
G01*
X6502Y8243D02*
G03*
X6518Y8235I16J11D01*
G01*
D02*
G03*
X6502Y8227I0J-19D01*
G01*
X6500Y8365D02*
G03*
X6525Y8355I25J25D01*
G01*
D02*
G03*
X6500Y8345I0J-35D01*
G01*
X5573Y8119D02*
G03*
X5558Y8125I-15J-15D01*
G01*
D02*
G03*
X5573Y8131I0J21D01*
G01*
X5606Y8019D02*
G03*
X5600Y8004I15J-15D01*
G01*
D02*
G03*
X5594Y8019I-21J0D01*
G01*
X5723Y8345D02*
G03*
X5711Y8350I-12J-12D01*
G01*
D02*
G03*
X5723Y8355I0J17D01*
G01*
Y8045D02*
G03*
X5711Y8050I-12J-12D01*
G01*
D02*
G03*
X5723Y8055I0J17D01*
G01*
X5758Y8004D02*
G03*
X5767Y8000I9J8D01*
G01*
D02*
G03*
X5758Y7996I0J-12D01*
G01*
X5752Y7996D02*
G03*
X5771Y8004I0J26D01*
G01*
X5752Y8007D02*
G03*
X5790Y8022I0J53D01*
G01*
X5845Y7957D02*
G03*
X5850Y7969I-12J12D01*
G01*
D02*
G03*
X5855Y7957I17J0D01*
G01*
X5945D02*
G03*
X5950Y7969I-12J12D01*
G01*
D02*
G03*
X5955Y7957I17J0D01*
G01*
X6045D02*
G03*
X6050Y7969I-12J12D01*
G01*
D02*
G03*
X6055Y7957I17J0D01*
G01*
X6095D02*
G03*
X6100Y7969I-12J12D01*
G01*
D02*
G03*
X6105Y7957I17J0D01*
G01*
X6155Y7945D02*
G03*
X6167Y7940I12J12D01*
G01*
X6167D02*
G03*
X6155Y7935I0J-17D01*
G01*
X6193Y7995D02*
G03*
X6181Y8000I-12J-12D01*
G01*
D02*
G03*
X6193Y8005I0J17D01*
G01*
X5995Y8405D02*
G03*
X5983Y8410I-12J-12D01*
G01*
D02*
G03*
X5995Y8415I0J17D01*
G01*
X6005Y8393D02*
G03*
X6000Y8381I12J-12D01*
G01*
D02*
G03*
X5995Y8393I-17J0D01*
G01*
X5955Y8415D02*
G03*
X5967Y8410I12J12D01*
G01*
D02*
G03*
X5955Y8405I0J-17D01*
G01*
X5905Y8393D02*
G03*
X5900Y8381I12J-12D01*
G01*
D02*
G03*
X5895Y8393I-17J0D01*
G01*
X5855D02*
G03*
X5850Y8381I12J-12D01*
G01*
D02*
G03*
X5845Y8393I-17J0D01*
G01*
X5805D02*
G03*
X5800Y8381I12J-12D01*
G01*
D02*
G03*
X5795Y8393I-17J0D01*
G01*
X6309Y8204D02*
G03*
X6281Y8162I18J-42D01*
G01*
X6314Y8194D02*
G03*
X6281Y8146I20J-49D01*
G01*
X6318Y8184D02*
G03*
X6281Y8129I23J-55D01*
G01*
X6322Y8174D02*
G03*
X6281Y8113I26J-61D01*
G01*
Y8164D02*
G03*
X6274Y8184I-27J0D01*
G01*
X6282Y7990D02*
G03*
X6294Y8017I-25J27D01*
G01*
X6275Y7998D02*
G03*
X6294Y8042I-40J44D01*
G01*
Y8026D02*
G03*
X6316Y7997I31J0D01*
G01*
X6294Y8042D02*
G03*
X6319Y8007I36J0D01*
G01*
X7104Y8269D02*
G03*
X7079Y8285I-25J-12D01*
G01*
D02*
G03*
X7104Y8301I0J28D01*
G01*
X7119Y8047D02*
G03*
X7077Y8065I-42J-42D01*
G01*
X7111Y8040D02*
G03*
X7050Y8065I-61J-61D01*
G01*
X7077D02*
G03*
X7119Y8082I0J60D01*
G01*
X7050Y8065D02*
G03*
X7111Y8090I0J86D01*
G01*
X5950Y8410D02*
X6000D01*
X5950Y7940D02*
Y7971D01*
X5926Y7995D02*
X5950Y7971D01*
X6347Y8115D02*
X6475D01*
Y7995D02*
X6538D01*
X6050Y7980D02*
X6076Y8006D01*
X6050Y7940D02*
Y7980D01*
X5690Y8050D02*
X5740D01*
X5690Y8049D02*
X5690Y8050D01*
X6281Y8215D02*
X6340D01*
X6972Y8306D02*
Y8337D01*
X6990Y8355D01*
X7025D01*
X5540Y8125D02*
X5600D01*
X5540Y8125D02*
X5540Y8125D01*
X5618Y8367D02*
X5664D01*
X5681Y8350D01*
X5740D01*
X5600Y7994D02*
Y8025D01*
Y7994D02*
X5613Y7981D01*
X5850Y7940D02*
Y7995D01*
X6100Y7940D02*
Y7972D01*
X6119Y7991D01*
X6840Y8006D02*
X6843Y8009D01*
Y8300D01*
X6150Y7940D02*
Y7940D01*
X6033Y8037D02*
X6035Y8039D01*
X6475Y8235D02*
X6518D01*
X6584Y8334D02*
X6708D01*
X6540Y8298D02*
X6544Y8294D01*
X6518Y8275D02*
X6540Y8298D01*
X6518Y8235D02*
Y8275D01*
X5800Y8360D02*
Y8410D01*
X5799Y8359D02*
X5800Y8360D01*
X6888Y8120D02*
X6965Y8197D01*
X7079D01*
Y8285D01*
X7145D01*
X7073Y8175D02*
X7145D01*
X7061Y8164D02*
X7073Y8175D01*
X5900Y8339D02*
X5953Y8285D01*
X5900Y8339D02*
Y8410D01*
X7036Y8065D02*
X7145D01*
X5847Y8318D02*
X5850Y8321D01*
Y8410D01*
X6000Y8359D02*
Y8410D01*
X5740Y8000D02*
X5767D01*
X5806Y8039D01*
X5936D01*
X5972Y8004D01*
X6294Y7965D02*
X6340D01*
X6150Y7940D02*
X6190D01*
X6544Y8294D02*
X6584Y8334D01*
X6281Y8115D02*
Y8215D01*
X6294Y7965D02*
Y8042D01*
X6708Y8334D02*
X6734Y8308D01*
X6788Y8355D02*
X6843Y8300D01*
X6475Y8355D02*
X6788D01*
X6167Y8000D02*
X6210D01*
X6141Y8026D02*
X6167Y8000D01*
X6121Y8026D02*
X6141D01*
X6035Y8039D02*
X6108D01*
X6121Y8026D01*
D11*
X6625Y7965D02*
G03*
X6619Y7980I-22J0D01*
G01*
D02*
G03*
X6634Y7974I15J15D01*
G01*
X6140Y8152D02*
G03*
X6132Y8166I-21J-4D01*
G01*
D02*
G03*
X6148Y8162I12J18D01*
G01*
X6655Y8089D02*
G03*
X6670Y8095I0J22D01*
G01*
D02*
G03*
X6664Y8080I15J-15D01*
G01*
X6931Y8237D02*
G03*
X6924Y8253I-22J0D01*
G01*
D02*
G03*
X6940Y8246I15J15D01*
G01*
X6931Y8237D02*
G03*
X6912Y8283I-64J0D01*
G01*
X6947Y8242D02*
G03*
X6960Y8235I12J7D01*
G01*
X6946Y8244D02*
G03*
X6967Y8235I21J21D01*
G01*
X6651Y8294D02*
G03*
X6645Y8278I15J-15D01*
G01*
D02*
G03*
X6639Y8294I-22J0D01*
G01*
X6891Y7974D02*
G03*
X6907Y7980I0J22D01*
G01*
D02*
G03*
X6900Y7965I15J-15D01*
G01*
X7002Y8227D02*
G03*
X6982Y8235I-20J-20D01*
G01*
D02*
G03*
X7002Y8243I0J28D01*
G01*
Y8107D02*
G03*
X6982Y8115I-20J-20D01*
G01*
D02*
G03*
X7002Y8123I0J28D01*
G01*
X6743Y8126D02*
G03*
X6679Y8104I-10J-76D01*
G01*
X6741Y8109D02*
G03*
X6655Y8080I-14J-102D01*
G01*
X6679Y8104D02*
G03*
X6701Y8168I-54J54D01*
G01*
X6655Y8080D02*
G03*
X6684Y8166I-73J73D01*
G01*
X6313Y8418D02*
G03*
X6333Y8410I20J20D01*
G01*
X6333D02*
G03*
X6313Y8402I0J-28D01*
G01*
X5683Y8248D02*
G03*
X5702Y8240I19J19D01*
G01*
D02*
G03*
X5683Y8232I0J-27D01*
G01*
X5671Y8236D02*
G03*
X5699Y8237I13J16D01*
G01*
X5682Y8249D02*
G03*
X5712Y8250I14J17D01*
G01*
X5683Y8232D02*
G03*
X5675Y8212I20J-20D01*
G01*
X5675Y8212D02*
G03*
X5667Y8232I-28J0D01*
G01*
X5652Y8225D02*
G03*
X5679Y8236I0J38D01*
G01*
X5611Y8225D02*
G03*
X5667Y8248I0J79D01*
G01*
X5478Y8233D02*
G03*
X5496Y8225I18J18D01*
G01*
X5507D02*
G03*
X5433Y8171I0J-78D01*
G01*
X5530Y8225D02*
G03*
X5449Y8166I0J-85D01*
G01*
X5553Y8225D02*
G03*
X5465Y8161I0J-93D01*
G01*
X5577Y8225D02*
G03*
X5481Y8155I0J-100D01*
G01*
X5600Y8225D02*
G03*
X5498Y8150I0J-107D01*
G01*
X5444Y7987D02*
G03*
X5420Y7955I10J-32D01*
G01*
D02*
G03*
X5396Y7987I-33J0D01*
G01*
X5684Y8112D02*
G03*
X5702Y8100I23J16D01*
G01*
X5702Y8100D02*
G03*
X5682Y8096I-5J-27D01*
G01*
X5685Y8111D02*
G03*
X5703Y8100I18J10D01*
G01*
X5683Y8113D02*
G03*
X5715Y8100I32J32D01*
G01*
X5684Y8172D02*
G03*
X5700Y8165I16J13D01*
G01*
D02*
G03*
X5684Y8158I0J-21D01*
G01*
X5698Y8167D02*
G03*
X5672Y8170I-14J-14D01*
G01*
X5712Y8153D02*
G03*
X5681Y8155I-17J-17D01*
G01*
X5704Y8161D02*
G03*
X5674Y8170I-24J-24D01*
G01*
X5667Y8173D02*
G03*
X5675Y8193I-20J20D01*
G01*
D02*
G03*
X5683Y8173I28J0D01*
G01*
X5992Y8181D02*
G03*
X5879Y8250I-113J-58D01*
G01*
X5977Y8173D02*
G03*
X5851Y8250I-126J-65D01*
G01*
X5962Y8166D02*
G03*
X5824Y8250I-138J-71D01*
G01*
X5947Y8158D02*
G03*
X5796Y8250I-151J-78D01*
G01*
X5932Y8150D02*
G03*
X5768Y8250I-164J-84D01*
G01*
X5917Y8142D02*
G03*
X5740Y8250I-177J-91D01*
G01*
X5929Y8188D02*
G03*
X5918Y8230I-40J13D01*
G01*
X5912Y8193D02*
G03*
X5898Y8250I-54J17D01*
G01*
X5918Y8230D02*
G03*
X5961Y8220I30J30D01*
G01*
X5898Y8250D02*
G03*
X5956Y8236I40J40D01*
G01*
X6013Y8205D02*
G03*
X6085Y8173I72J62D01*
G01*
X6026Y8216D02*
G03*
X6122Y8173I96J84D01*
G01*
X6085D02*
G03*
X6013Y8140I0J-95D01*
G01*
X6122Y8173D02*
G03*
X6026Y8129I0J-128D01*
G01*
X5726Y8246D02*
G03*
X5705Y8242I-8J-17D01*
G01*
X5772Y8193D02*
G03*
X5754Y8196I-11J-11D01*
G01*
X5782Y8184D02*
G03*
X5752Y8196I-30J-30D01*
G01*
X5706Y8159D02*
G03*
X5726Y8154I14J14D01*
G01*
X5753Y8104D02*
G03*
X5784Y8115I3J39D01*
G01*
X6222Y8054D02*
G03*
X6257Y8068I0J49D01*
G01*
X6398Y8418D02*
G03*
X6418Y8410I20J20D01*
G01*
X6418D02*
G03*
X6398Y8402I0J-28D01*
G01*
X6362Y8402D02*
G03*
X6342Y8410I-20J-20D01*
G01*
X6342D02*
G03*
X6362Y8418I0J28D01*
G01*
X7125Y8384D02*
G03*
X7062Y8410I-63J-63D01*
G01*
X7113Y8372D02*
G03*
X7021Y8410I-92J-92D01*
G01*
X7093D02*
G03*
X7113Y8418I0J28D01*
G01*
Y7932D02*
G03*
X7081Y7945I-32J-32D01*
G01*
X7074D02*
G03*
X7125Y7966I0J72D01*
G01*
X7033Y7945D02*
G03*
X7113Y7978I0J113D01*
G01*
X5167D02*
G03*
X5223Y7955I56J56D01*
G01*
D02*
G03*
X5167Y7932I0J-79D01*
G01*
X6295Y8410D02*
X6340D01*
X6385Y8410D01*
X5898Y8250D02*
X5976Y8173D01*
X5740Y8250D02*
X5898D01*
X5715Y8150D02*
X5740D01*
X5700Y8165D02*
X5715Y8150D01*
X5675Y8165D02*
X5700D01*
X5712Y8250D02*
X5740D01*
X5702Y8240D02*
X5712Y8250D01*
X5675Y8240D02*
X5702D01*
X5675Y8165D02*
Y8202D01*
X5675Y8240D01*
X5660Y8225D02*
X5675Y8240D01*
X5600Y8225D02*
X5660D01*
X5420Y8175D02*
Y8225D01*
Y7955D02*
Y8175D01*
X5135Y7955D02*
X5420D01*
X5768Y8100D02*
X5784Y8115D01*
X5740Y8100D02*
X5768D01*
X5675Y8105D02*
X5703Y8100D01*
X5740D01*
X6210Y8050D02*
X6239D01*
X6267Y8078D02*
X6312D01*
X6645Y8126D02*
Y8300D01*
X6960Y8235D02*
X7025D01*
X6914Y8263D02*
X6940Y8237D01*
X6149Y8200D02*
X6210D01*
X6122Y8173D02*
X6149Y8200D01*
X5976Y8173D02*
X6122D01*
X5740Y8200D02*
X5766D01*
X5892Y8074D02*
X6107D01*
X6198Y8050D02*
X6210D01*
X6655Y8080D02*
X6750Y8175D01*
X6122Y8173D02*
X6149Y8153D01*
X6239Y8050D02*
X6267Y8078D01*
X5420Y8225D02*
X5600D01*
X6914Y8280D02*
X6960Y8235D01*
X6914Y8263D02*
Y8280D01*
X5784Y8182D02*
X5892Y8074D01*
X5766Y8200D02*
X5784Y8182D01*
Y8115D02*
Y8182D01*
X6559Y8040D02*
X6634Y7965D01*
X6559Y8040D02*
X6645Y8126D01*
X6385Y8410D02*
X6785D01*
X6785Y8410D01*
X7130D01*
X7145Y8395D01*
X6914Y8280D02*
Y8410D01*
X6891Y7965D02*
X6953Y8027D01*
X7135Y7945D02*
X7145Y7955D01*
X6312Y8078D02*
X6350Y8040D01*
X6559D01*
X6559Y8040D01*
X6107Y8074D02*
X6131Y8050D01*
X6198D01*
Y8050D02*
Y8050D01*
X6955Y8115D02*
X7025D01*
X6955Y7945D02*
X7135D01*
X6955D02*
Y8115D01*
D12*
X5461Y8420D02*
G03*
X5479Y8412I18J18D01*
G01*
D02*
G03*
X5461Y8405I0J-25D01*
G01*
Y7945D02*
G03*
X5479Y7938I18J18D01*
G01*
D02*
G03*
X5461Y7930I0J-25D01*
G01*
X6274Y8323D02*
G03*
X6261Y8330I-13J-9D01*
G01*
D02*
G03*
X6274Y8337I0J16D01*
G01*
X5665Y8292D02*
G03*
X5649Y8300I-16J-12D01*
G01*
D02*
G03*
X5665Y8308I0J20D01*
G01*
X5675Y8301D02*
G03*
X5633Y8285I-2J-56D01*
G01*
X5676Y8301D02*
G03*
X5647Y8298I-13J-18D01*
G01*
X5667Y8289D02*
G03*
X5635Y8287I-14J-20D01*
G01*
X5621Y8282D02*
G03*
X5637Y8289I0J23D01*
G01*
X5556Y8282D02*
G03*
X5575Y8281I10J10D01*
G01*
X5574Y8270D02*
G03*
X5563Y8275I-11J-11D01*
G01*
D02*
G03*
X5574Y8280I0J16D01*
G01*
X5781Y7938D02*
G03*
X5796Y7944I0J22D01*
G01*
X6228Y8300D02*
G03*
X6238Y8291I10J1D01*
G01*
X6226Y8304D02*
G03*
X6259Y8291I32J32D01*
G01*
X6226Y8304D02*
G03*
X6236Y8300I9J9D01*
G01*
D02*
G03*
X6226Y8296I0J-13D01*
G01*
X6236Y8355D02*
G03*
X6219Y8358I-11J-11D01*
G01*
X6250Y8341D02*
G03*
X6225Y8345I-15J-15D01*
G01*
X6239Y8352D02*
G03*
X6222Y8359I-17J-17D01*
G01*
X6263Y8328D02*
G03*
X6222Y8345I-41J-41D01*
G01*
X6226Y8354D02*
G03*
X6236Y8350I9J9D01*
G01*
D02*
G03*
X6226Y8346I0J-13D01*
G01*
X6374Y8318D02*
G03*
X6365Y8305I4J-12D01*
G01*
Y8310D02*
G03*
X6361Y8321I-15J0D01*
G01*
X6360Y8300D02*
G03*
X6360Y8321I-11J11D01*
G01*
X5649Y8300D02*
X5675D01*
X5624Y8275D02*
X5649Y8300D01*
X5600Y8275D02*
X5624D01*
X6365Y8330D02*
X6385D01*
X6350Y8291D02*
X6365Y8306D01*
X6238Y8291D02*
X6350D01*
X6210Y8300D02*
X6238D01*
X6261Y8330D02*
X6295D01*
X6241Y8350D02*
X6261Y8330D01*
X6210Y8350D02*
X6241D01*
X5800Y7938D02*
Y7940D01*
X5453Y8412D02*
X5504D01*
X5547Y8369D01*
Y8290D02*
Y8369D01*
Y8290D02*
X5563Y8275D01*
X5600D01*
X5453Y7938D02*
X5800D01*
X6238Y8291D02*
Y8300D01*
X6365Y8306D02*
Y8330D01*
D13*
X5191Y8041D02*
G03*
X5219Y8029I28J28D01*
G01*
X5216Y8123D02*
G03*
X5182Y8141I-34J-23D01*
G01*
X5216Y8222D02*
G03*
X5174Y8240I-42J-42D01*
G01*
X5169Y8414D02*
G03*
X5207Y8395I38J29D01*
G01*
D02*
G03*
X5169Y8376I0J-48D01*
G01*
X5146Y8256D02*
G03*
X5135Y8240I6J-16D01*
G01*
D02*
G03*
X5124Y8256I-17J0D01*
G01*
X5148Y8254D02*
G03*
X5135Y8239I2J-15D01*
G01*
Y8239D02*
G03*
X5125Y8260I-27J0D01*
G01*
X5191Y8040D02*
G03*
X5146Y8054I-36J-36D01*
G01*
X5220Y8325D02*
X5240D01*
X5207Y8395D02*
X5220Y8382D01*
X5135Y8395D02*
X5207D01*
X5220Y8225D02*
X5240D01*
X5205Y8240D02*
X5220Y8225D01*
X5135Y8240D02*
Y8285D01*
X5220Y8125D02*
X5240D01*
X5204Y8141D02*
X5220Y8125D01*
X5182Y8141D02*
X5204D01*
X5135Y8175D02*
X5182D01*
X5206Y8025D02*
X5240D01*
X5166Y8065D02*
X5206Y8025D01*
X5135Y8065D02*
X5166D01*
X5220Y8325D02*
Y8382D01*
X5135Y8240D02*
X5205D01*
X5182Y8141D02*
Y8175D01*
D14*
X5135Y7955D02*
D03*
Y8065D02*
D03*
Y8175D02*
D03*
Y8285D02*
D03*
Y8395D02*
D03*
X7145Y7955D02*
D03*
Y8065D02*
D03*
Y8175D02*
D03*
Y8285D02*
D03*
Y8395D02*
D03*
D15*
X6380Y8410D02*
D03*
Y8330D02*
D03*
X6295Y8410D02*
D03*
Y8330D02*
D03*
D16*
X6340Y7965D02*
D03*
Y8215D02*
D03*
D17*
X5800Y8410D02*
D03*
X5850D02*
D03*
X5900D02*
D03*
X5950D02*
D03*
X6000D02*
D03*
X6050D02*
D03*
X6100D02*
D03*
X6150D02*
D03*
Y7940D02*
D03*
X6100D02*
D03*
X6050D02*
D03*
X6000D02*
D03*
X5950D02*
D03*
X5900D02*
D03*
X5850D02*
D03*
X5800D02*
D03*
D18*
X6210Y8350D02*
D03*
Y8300D02*
D03*
Y8250D02*
D03*
Y8200D02*
D03*
Y8150D02*
D03*
Y8100D02*
D03*
Y8050D02*
D03*
Y8000D02*
D03*
X5740D02*
D03*
Y8050D02*
D03*
Y8100D02*
D03*
Y8150D02*
D03*
Y8200D02*
D03*
Y8250D02*
D03*
Y8300D02*
D03*
Y8350D02*
D03*
D19*
X5976Y8173D02*
D03*
X6750Y8175D02*
D03*
D20*
X5675Y8165D02*
D03*
Y8105D02*
D03*
X5675Y8300D02*
D03*
Y8240D02*
D03*
D21*
X5420Y8175D02*
D03*
D22*
X5240Y8325D02*
D03*
Y8275D02*
D03*
Y8225D02*
D03*
Y8175D02*
D03*
Y8125D02*
D03*
Y8075D02*
D03*
Y8025D02*
D03*
X5600D02*
D03*
Y8075D02*
D03*
Y8125D02*
D03*
Y8175D02*
D03*
Y8225D02*
D03*
Y8275D02*
D03*
Y8325D02*
D03*
D23*
X6475Y8355D02*
D03*
Y8235D02*
D03*
Y8115D02*
D03*
Y7995D02*
D03*
X7025D02*
D03*
Y8115D02*
D03*
Y8235D02*
D03*
Y8355D02*
D03*
D24*
X4039Y8455D02*
X5032D01*
X4039Y7895D02*
X5032D01*
X4064Y7641D02*
Y7895D01*
Y8455D02*
Y8709D01*
X4013Y7743D02*
X4064Y7895D01*
X4115Y7743D01*
X4064Y8455D02*
X4115Y8607D01*
X4013D02*
X4064Y8455D01*
X7215Y6909D02*
Y7862D01*
X5065Y6909D02*
Y7862D01*
X6813Y6934D02*
X7215D01*
X5065D02*
X5386D01*
X7063Y6985D02*
X7215Y6934D01*
X7063Y6883D02*
X7215Y6934D01*
X5065D02*
X5217Y6883D01*
X5065Y6934D02*
X5217Y6985D01*
D25*
X3729Y7627D02*
Y7525D01*
X3805D01*
X3780Y7576D01*
Y7601D01*
X3805Y7627D01*
X3856D01*
X3881Y7601D01*
Y7550D01*
X3856Y7525D01*
X3881Y7677D02*
X3856D01*
Y7703D01*
X3881D01*
Y7677D01*
X3729Y7906D02*
X3754Y7855D01*
X3805Y7804D01*
X3856D01*
X3881Y7830D01*
Y7880D01*
X3856Y7906D01*
X3830D01*
X3805Y7880D01*
Y7804D01*
X3754Y7957D02*
X3729Y7982D01*
Y8033D01*
X3754Y8058D01*
X3856D01*
X3881Y8033D01*
Y7982D01*
X3856Y7957D01*
X3754D01*
X3881Y8312D02*
X3830Y8261D01*
X3780D01*
X3729Y8312D01*
X3881Y8388D02*
X3780D01*
Y8414D01*
X3805Y8439D01*
X3881D01*
X3805D01*
X3780Y8464D01*
X3805Y8490D01*
X3881D01*
Y8541D02*
X3780D01*
Y8566D01*
X3805Y8591D01*
X3881D01*
X3805D01*
X3780Y8617D01*
X3805Y8642D01*
X3881D01*
Y8693D02*
X3830Y8744D01*
X3780D01*
X3729Y8693D01*
X5528Y6843D02*
X5426D01*
X5528Y6944D01*
Y6970D01*
X5503Y6995D01*
X5452D01*
X5426Y6970D01*
X5579Y6843D02*
X5630D01*
X5604D01*
Y6995D01*
X5579Y6970D01*
X5706Y6843D02*
Y6868D01*
X5731D01*
Y6843D01*
X5706D01*
X5934Y6995D02*
X5833D01*
Y6919D01*
X5884Y6944D01*
X5909D01*
X5934Y6919D01*
Y6868D01*
X5909Y6843D01*
X5858D01*
X5833Y6868D01*
X5985Y6970D02*
X6010Y6995D01*
X6061D01*
X6087Y6970D01*
Y6868D01*
X6061Y6843D01*
X6010D01*
X5985Y6868D01*
Y6970D01*
X6341Y6843D02*
X6290Y6894D01*
Y6944D01*
X6341Y6995D01*
X6417Y6843D02*
Y6944D01*
X6442D01*
X6468Y6919D01*
Y6843D01*
Y6919D01*
X6493Y6944D01*
X6518Y6919D01*
Y6843D01*
X6569D02*
Y6944D01*
X6594D01*
X6620Y6919D01*
Y6843D01*
Y6919D01*
X6645Y6944D01*
X6671Y6919D01*
Y6843D01*
X6721D02*
X6772Y6894D01*
Y6944D01*
X6721Y6995D01*
D26*
X6891Y7965D02*
D03*
X5926Y7995D02*
D03*
X6347Y8115D02*
D03*
X6538Y7995D02*
D03*
X6076Y8006D02*
D03*
X5690Y8049D02*
D03*
X6281Y8115D02*
D03*
X6645Y8300D02*
D03*
X6843Y8300D02*
D03*
X6972Y8306D02*
D03*
X6940Y8237D02*
D03*
X5540Y8125D02*
D03*
X5618Y8367D02*
D03*
X5613Y7981D02*
D03*
X5850Y7995D02*
D03*
X6655Y8080D02*
D03*
X6149Y8153D02*
D03*
X6840Y8006D02*
D03*
X6190Y7940D02*
D03*
X6033Y8037D02*
D03*
X6540Y8298D02*
D03*
X5799Y8359D02*
D03*
X6888Y8120D02*
D03*
X5453Y7938D02*
D03*
Y8412D02*
D03*
X7061Y8164D02*
D03*
X5953Y8285D02*
D03*
X7036Y8065D02*
D03*
X5847Y8318D02*
D03*
X6634Y7965D02*
D03*
X6000Y8359D02*
D03*
X5972Y8004D02*
D03*
X6294Y8042D02*
D03*
X6734Y8308D02*
D03*
X6119Y7991D02*
D03*
M02*
