%FSLAX42Y42*%
%MOMM*%
G71*
G01*
G75*
G04 Layer_Color=8421504*
%ADD10C,0.11*%
%ADD11C,0.17*%
%ADD12C,0.14*%
%ADD13C,0.20*%
%ADD14R,1.00X0.82*%
%ADD15R,0.60X0.40*%
%ADD16R,1.70X1.00*%
%ADD17R,0.25X0.50*%
%ADD18R,0.50X0.25*%
%ADD19R,1.50X1.50*%
%ADD20R,0.40X0.40*%
%ADD21R,1.80X4.00*%
%ADD22R,0.70X0.28*%
%ADD23R,0.70X0.40*%
%ADD24C,0.25*%
%ADD25C,0.15*%
%ADD26C,0.35*%
%ADD27R,1.00X1.00*%
%ADD28C,0.25*%
%ADD29C,0.10*%
%ADD30C,0.15*%
D14*
X5135Y7955D02*
D03*
Y8065D02*
D03*
Y8175D02*
D03*
Y8285D02*
D03*
Y8395D02*
D03*
X7145Y7955D02*
D03*
Y8065D02*
D03*
Y8175D02*
D03*
Y8285D02*
D03*
Y8395D02*
D03*
D15*
X6380Y8410D02*
D03*
Y8330D02*
D03*
X6295Y8410D02*
D03*
Y8330D02*
D03*
D16*
X6340Y7965D02*
D03*
Y8215D02*
D03*
D17*
X5800Y8410D02*
D03*
X5850D02*
D03*
X5900D02*
D03*
X5950D02*
D03*
X6000D02*
D03*
X6050D02*
D03*
X6100D02*
D03*
X6150D02*
D03*
Y7940D02*
D03*
X6100D02*
D03*
X6050D02*
D03*
X6000D02*
D03*
X5950D02*
D03*
X5900D02*
D03*
X5850D02*
D03*
X5800D02*
D03*
D18*
X6210Y8350D02*
D03*
Y8300D02*
D03*
Y8250D02*
D03*
Y8200D02*
D03*
Y8150D02*
D03*
Y8100D02*
D03*
Y8050D02*
D03*
Y8000D02*
D03*
X5740D02*
D03*
Y8050D02*
D03*
Y8100D02*
D03*
Y8150D02*
D03*
Y8200D02*
D03*
Y8250D02*
D03*
Y8300D02*
D03*
Y8350D02*
D03*
D19*
X5976Y8173D02*
D03*
X6750Y8175D02*
D03*
D20*
X5675Y8165D02*
D03*
Y8105D02*
D03*
X5675Y8300D02*
D03*
Y8240D02*
D03*
D21*
X5420Y8175D02*
D03*
D22*
X5240Y8325D02*
D03*
Y8275D02*
D03*
Y8225D02*
D03*
Y8175D02*
D03*
Y8125D02*
D03*
Y8075D02*
D03*
Y8025D02*
D03*
X5600D02*
D03*
Y8075D02*
D03*
Y8125D02*
D03*
Y8175D02*
D03*
Y8225D02*
D03*
Y8275D02*
D03*
Y8325D02*
D03*
D23*
X6475Y8355D02*
D03*
Y8235D02*
D03*
Y8115D02*
D03*
Y7995D02*
D03*
X7025D02*
D03*
Y8115D02*
D03*
Y8235D02*
D03*
Y8355D02*
D03*
D24*
X4039Y8455D02*
X5032D01*
X4039Y7895D02*
X5032D01*
X4064Y7641D02*
Y7895D01*
Y8455D02*
Y8709D01*
X4013Y7743D02*
X4064Y7895D01*
X4115Y7743D01*
X4064Y8455D02*
X4115Y8607D01*
X4013D02*
X4064Y8455D01*
X7215Y6909D02*
Y7862D01*
X5065Y6909D02*
Y7862D01*
X6813Y6934D02*
X7215D01*
X5065D02*
X5386D01*
X7063Y6985D02*
X7215Y6934D01*
X7063Y6883D02*
X7215Y6934D01*
X5065D02*
X5217Y6883D01*
X5065Y6934D02*
X5217Y6985D01*
D25*
X3729Y7627D02*
Y7525D01*
X3805D01*
X3780Y7576D01*
Y7601D01*
X3805Y7627D01*
X3856D01*
X3881Y7601D01*
Y7550D01*
X3856Y7525D01*
X3881Y7677D02*
X3856D01*
Y7703D01*
X3881D01*
Y7677D01*
X3729Y7906D02*
X3754Y7855D01*
X3805Y7804D01*
X3856D01*
X3881Y7830D01*
Y7880D01*
X3856Y7906D01*
X3830D01*
X3805Y7880D01*
Y7804D01*
X3754Y7957D02*
X3729Y7982D01*
Y8033D01*
X3754Y8058D01*
X3856D01*
X3881Y8033D01*
Y7982D01*
X3856Y7957D01*
X3754D01*
X3881Y8312D02*
X3830Y8261D01*
X3780D01*
X3729Y8312D01*
X3881Y8388D02*
X3780D01*
Y8414D01*
X3805Y8439D01*
X3881D01*
X3805D01*
X3780Y8464D01*
X3805Y8490D01*
X3881D01*
Y8541D02*
X3780D01*
Y8566D01*
X3805Y8591D01*
X3881D01*
X3805D01*
X3780Y8617D01*
X3805Y8642D01*
X3881D01*
Y8693D02*
X3830Y8744D01*
X3780D01*
X3729Y8693D01*
X5528Y6843D02*
X5426D01*
X5528Y6944D01*
Y6970D01*
X5503Y6995D01*
X5452D01*
X5426Y6970D01*
X5579Y6843D02*
X5630D01*
X5604D01*
Y6995D01*
X5579Y6970D01*
X5706Y6843D02*
Y6868D01*
X5731D01*
Y6843D01*
X5706D01*
X5934Y6995D02*
X5833D01*
Y6919D01*
X5884Y6944D01*
X5909D01*
X5934Y6919D01*
Y6868D01*
X5909Y6843D01*
X5858D01*
X5833Y6868D01*
X5985Y6970D02*
X6010Y6995D01*
X6061D01*
X6087Y6970D01*
Y6868D01*
X6061Y6843D01*
X6010D01*
X5985Y6868D01*
Y6970D01*
X6341Y6843D02*
X6290Y6894D01*
Y6944D01*
X6341Y6995D01*
X6417Y6843D02*
Y6944D01*
X6442D01*
X6468Y6919D01*
Y6843D01*
Y6919D01*
X6493Y6944D01*
X6518Y6919D01*
Y6843D01*
X6569D02*
Y6944D01*
X6594D01*
X6620Y6919D01*
Y6843D01*
Y6919D01*
X6645Y6944D01*
X6671Y6919D01*
Y6843D01*
X6721D02*
X6772Y6894D01*
Y6944D01*
X6721Y6995D01*
M02*
