%FSLAX44Y44*%
%MOMM*%
G71*
G01*
G75*
G04 Layer_Physical_Order=2*
G04 Layer_Color=16711680*
%ADD10R,0.7000X0.2800*%
%ADD11R,1.0000X1.0000*%
%ADD12R,0.4000X0.4000*%
%ADD13R,0.4000X0.4000*%
%ADD14R,0.5000X0.2500*%
%ADD15R,0.2500X0.5000*%
%ADD16C,0.1100*%
%ADD17C,0.1700*%
%ADD18C,0.1400*%
%ADD19C,0.2540*%
%ADD20C,0.1524*%
%ADD21C,0.3500*%
%ADD22R,1.5000X0.6000*%
%ADD23R,1.0000X1.0000*%
%ADD24R,0.7000X0.4000*%
%ADD25R,0.6000X0.4000*%
%ADD26R,1.0000X0.7000*%
G36*
X582015Y824483D02*
X581489Y823214D01*
Y801462D01*
X581489Y801462D01*
X581489D01*
X582044Y800123D01*
X582047Y800120D01*
X581992Y799846D01*
X582064Y799487D01*
X580795Y797941D01*
X556549D01*
X550756Y803734D01*
X550926Y804590D01*
X549926Y804789D01*
Y807601D01*
X550924D01*
Y808599D01*
X553735D01*
X553934Y807599D01*
X553900Y807427D01*
X555475Y807905D01*
X555843Y807978D01*
X561592Y802229D01*
X562932Y801674D01*
X569218D01*
X569373Y801442D01*
X570349Y800790D01*
X571500Y800561D01*
X572651Y800790D01*
X573627Y801442D01*
X574279Y802418D01*
X574508Y803569D01*
X574279Y804720D01*
X573627Y805695D01*
Y806609D01*
X574279Y807585D01*
X574508Y808736D01*
X574279Y809887D01*
X573631Y810857D01*
X573631Y810857D01*
X573631D01*
X573627Y810863D01*
X573624Y810865D01*
X573093Y811219D01*
X573093Y811219D01*
X573093D01*
X572651Y811515D01*
X572201Y811800D01*
D01*
X572201Y811800D01*
Y817000D01*
X565998D01*
Y819000D01*
X572201D01*
Y824200D01*
X572201D01*
Y824732D01*
X573615Y826146D01*
X580904D01*
X582015Y824483D01*
D02*
G37*
G36*
X570583Y834660D02*
Y834660D01*
D01*
X570583D01*
Y834660D01*
X571922Y834106D01*
X571922Y834106D01*
X588801D01*
Y832800D01*
X589872D01*
X594118Y831955D01*
X594241Y831610D01*
X594076Y829934D01*
X553208D01*
X553053Y830167D01*
X552077Y830819D01*
X550926Y831048D01*
X550754Y831013D01*
X549208Y832282D01*
Y833478D01*
X550690Y834822D01*
X551462Y834745D01*
X551593Y834549D01*
X552569Y833897D01*
X552720Y833867D01*
Y836678D01*
X553717D01*
Y837676D01*
X556529D01*
X556499Y837827D01*
X556814Y838416D01*
X566827D01*
X570583Y834660D01*
D02*
G37*
%LPC*%
G36*
X556529Y835676D02*
X554720D01*
Y833867D01*
X554871Y833897D01*
X555847Y834549D01*
X556499Y835525D01*
X556529Y835676D01*
D02*
G37*
G36*
X553735Y806599D02*
X551926D01*
Y804790D01*
X552077Y804820D01*
X553053Y805472D01*
X553705Y806448D01*
X553735Y806599D01*
D02*
G37*
%LPD*%
D16*
X582111Y840500D02*
X607000D01*
X581109Y841502D02*
X582111Y840500D01*
X586994Y821690D02*
X588518Y820166D01*
X597330D01*
X602996Y814500D01*
X607000D01*
X617780Y810000D02*
X623500D01*
X616250Y811530D02*
X617780Y810000D01*
X616250Y811530D02*
Y819251D01*
X614071D02*
X616250D01*
X610108Y823214D02*
X614071Y819251D01*
X610108Y823214D02*
Y824230D01*
X615442Y822960D02*
X616851Y821551D01*
X618550D01*
Y819500D02*
X623500D01*
X608838Y828040D02*
X610108Y829310D01*
X550926Y828040D02*
X608838D01*
X615950Y830072D02*
X617022Y829000D01*
X623500D01*
X590494Y824000D02*
X593501D01*
X589237Y825257D02*
X590494Y824000D01*
X585427Y825257D02*
X589237D01*
X583384Y823214D02*
X585427Y825257D01*
X583384Y801462D02*
Y823214D01*
Y801462D02*
X585000Y799846D01*
X543908Y822592D02*
Y834390D01*
X542298Y836000D02*
X543908Y834390D01*
X538501Y836000D02*
X542298D01*
X562610Y808736D02*
X571500D01*
X547314Y824032D02*
X562610Y808736D01*
X547314Y824032D02*
Y835462D01*
X552161Y840310D01*
X567612D01*
X571922Y836000D01*
X593501D01*
X588828Y800000D02*
X593501D01*
X588828D02*
Y806832D01*
X590668Y812000D02*
X593501D01*
X586994Y815674D02*
X590668Y812000D01*
X618550Y819500D02*
Y821551D01*
X543908Y822592D02*
X562932Y803569D01*
X571500D01*
D17*
X526500Y807501D02*
X533111D01*
X534670Y805942D01*
X526500Y817001D02*
X534670D01*
X526500Y826501D02*
X531114D01*
X532907Y828294D01*
X535178D01*
X535940Y829056D01*
X526500Y836001D02*
X529677D01*
X534670Y840994D01*
X599055Y795654D02*
X600710Y793999D01*
X604500D01*
X596900Y805180D02*
X599055Y803025D01*
Y796929D02*
Y803025D01*
X580644Y794500D02*
X596626D01*
X594360Y805180D02*
X596900D01*
X541528Y810006D02*
X555683Y795851D01*
X538501Y810006D02*
Y812000D01*
X618236Y800500D02*
X623500D01*
X615950Y794000D02*
X618236Y796286D01*
X612502Y794000D02*
X615950D01*
X608330Y793999D02*
X612502Y794000D01*
X604500Y793999D02*
X608330D01*
X608584Y834390D02*
X614380D01*
X618490Y838500D01*
X623500D01*
X598932Y831596D02*
X605790D01*
X608584Y834390D01*
X553720Y836676D02*
X558800Y831596D01*
X567690Y818000D02*
X575466Y810223D01*
X573132Y799761D02*
X575466Y802095D01*
X562740Y799761D02*
X573132D01*
X566001Y818000D02*
X567690D01*
X550926Y807599D02*
X551401D01*
X559239Y799761D01*
X575466Y802095D02*
Y810223D01*
X526500Y795274D02*
Y798001D01*
X555683Y795851D02*
X580644D01*
X597977D01*
X596626Y794500D02*
X597977Y795851D01*
X599055Y796929D01*
X597977Y795851D02*
X599055Y796929D01*
X538501Y810006D02*
X541528D01*
X599055Y795654D02*
Y796929D01*
Y803025D01*
X618236Y796286D02*
Y800500D01*
X526500Y795274D02*
X545846D01*
X562740Y799761D02*
X573132D01*
X558800Y831596D02*
X598932D01*
X605790D01*
X559239Y799761D02*
X562740D01*
X538501Y824000D02*
X562740Y799761D01*
D18*
X607060Y807192D02*
X607850D01*
X604500Y804632D02*
X607060Y807192D01*
X604500Y801999D02*
Y804632D01*
X611886Y805180D02*
X614426Y807720D01*
X611886Y802000D02*
X612502D01*
X611886D02*
Y805180D01*
D19*
X419360Y845500D02*
X516260D01*
X419360Y790500D02*
X516260D01*
X421900Y765100D02*
Y790500D01*
Y845500D02*
Y870900D01*
X416820Y775260D02*
X421900Y790500D01*
X426980Y775260D01*
X421900Y845500D02*
X426980Y860740D01*
X416820D02*
X421900Y845500D01*
X630000Y690880D02*
Y786760D01*
X520000Y690880D02*
Y786760D01*
X494600Y693420D02*
X520000D01*
X630000D02*
X655400D01*
X504760Y698500D02*
X520000Y693420D01*
X504760Y688340D02*
X520000Y693420D01*
X630000D02*
X645240Y688340D01*
X630000Y693420D02*
X645240Y698500D01*
D20*
X388382Y763152D02*
Y752996D01*
X395999D01*
X393460Y758074D01*
Y760613D01*
X395999Y763152D01*
X401078D01*
X403617Y760613D01*
Y755535D01*
X401078Y752996D01*
X403617Y768231D02*
X401078D01*
Y770770D01*
X403617D01*
Y768231D01*
X388382Y791083D02*
Y780927D01*
X395999D01*
X393460Y786005D01*
Y788544D01*
X395999Y791083D01*
X401078D01*
X403617Y788544D01*
Y783466D01*
X401078Y780927D01*
X390921Y796162D02*
X388382Y798701D01*
Y803779D01*
X390921Y806318D01*
X401078D01*
X403617Y803779D01*
Y798701D01*
X401078Y796162D01*
X390921D01*
X403617Y831710D02*
X398539Y826632D01*
X393460D01*
X388382Y831710D01*
X403617Y839328D02*
X393460D01*
Y841867D01*
X395999Y844406D01*
X403617D01*
X395999D01*
X393460Y846945D01*
X395999Y849484D01*
X403617D01*
Y854563D02*
X393460D01*
Y857102D01*
X395999Y859641D01*
X403617D01*
X395999D01*
X393460Y862180D01*
X395999Y864719D01*
X403617D01*
Y869798D02*
X398539Y874876D01*
X393460D01*
X388382Y869798D01*
X504917Y656854D02*
X509996D01*
X507457D01*
Y672089D01*
X504917Y669550D01*
X517613Y656854D02*
X522692D01*
X520153D01*
Y672089D01*
X517613Y669550D01*
X530309Y656854D02*
Y659393D01*
X532848D01*
Y656854D01*
X530309D01*
X543005Y669550D02*
X545544Y672089D01*
X550623D01*
X553162Y669550D01*
Y659393D01*
X550623Y656854D01*
X545544D01*
X543005Y659393D01*
Y669550D01*
X558240D02*
X560779Y672089D01*
X565858D01*
X568397Y669550D01*
Y659393D01*
X565858Y656854D01*
X560779D01*
X558240Y659393D01*
Y669550D01*
X593789Y656854D02*
X588710Y661932D01*
Y667011D01*
X593789Y672089D01*
X601406Y656854D02*
Y667011D01*
X603945D01*
X606485Y664471D01*
Y656854D01*
Y664471D01*
X609024Y667011D01*
X611563Y664471D01*
Y656854D01*
X616641D02*
Y667011D01*
X619180D01*
X621720Y664471D01*
Y656854D01*
Y664471D01*
X624259Y667011D01*
X626798Y664471D01*
Y656854D01*
X631876D02*
X636955Y661932D01*
Y667011D01*
X631876Y672089D01*
D21*
X581109Y841502D02*
D03*
X586994Y821690D02*
D03*
X534670Y805942D02*
D03*
Y817001D02*
D03*
X535940Y829056D02*
D03*
X607850Y807192D02*
D03*
X614426Y807720D02*
D03*
X534670Y840994D02*
D03*
X580644Y794500D02*
D03*
X594360Y805180D02*
D03*
X610108Y824230D02*
D03*
X615442Y822960D02*
D03*
X610108Y829310D02*
D03*
X550926Y828040D02*
D03*
X615950Y830072D02*
D03*
X585000Y799846D02*
D03*
X571500Y803569D02*
D03*
Y808736D02*
D03*
X588828Y806832D02*
D03*
X586994Y815674D02*
D03*
X598932Y831596D02*
D03*
X608584Y834390D02*
D03*
X553720Y836676D02*
D03*
X550926Y807599D02*
D03*
X545846Y795274D02*
D03*
D22*
X607000Y840500D02*
D03*
Y814500D02*
D03*
D23*
X566001Y818000D02*
D03*
D24*
X593501Y836000D02*
D03*
Y824000D02*
D03*
Y812000D02*
D03*
Y800000D02*
D03*
X538501D02*
D03*
Y812000D02*
D03*
Y824000D02*
D03*
Y836000D02*
D03*
D25*
X604500Y793999D02*
D03*
Y801999D02*
D03*
X612502Y794000D02*
D03*
Y802000D02*
D03*
D26*
X623500Y800500D02*
D03*
Y810000D02*
D03*
Y819500D02*
D03*
Y829000D02*
D03*
Y838500D02*
D03*
X526500Y798001D02*
D03*
Y807501D02*
D03*
Y817001D02*
D03*
Y826501D02*
D03*
Y836001D02*
D03*
M02*
