%FSLAX44Y44*%
%MOMM*%
G71*
G01*
G75*
G04 Layer_Color=16711935*
%ADD10R,0.7000X0.2800*%
%ADD11R,1.0000X1.0000*%
%ADD12R,0.4000X0.4000*%
%ADD13R,0.4000X0.4000*%
%ADD14R,0.5000X0.2500*%
%ADD15R,0.2500X0.5000*%
%ADD16C,0.1100*%
%ADD17C,0.1700*%
%ADD18C,0.1400*%
%ADD19C,0.2540*%
%ADD20C,0.1524*%
%ADD21C,0.3500*%
%ADD22R,1.5000X0.6000*%
%ADD23R,1.0000X1.0000*%
%ADD24R,0.7000X0.4000*%
%ADD25R,0.6000X0.4000*%
%ADD26R,1.0000X0.7000*%
%ADD27C,0.2000*%
%ADD28C,0.2500*%
%ADD29C,0.1500*%
%ADD30C,0.1000*%
%ADD31R,0.8000X0.3800*%
%ADD32R,1.1000X1.1000*%
%ADD33R,0.5000X0.5000*%
%ADD34R,0.5000X0.5000*%
%ADD35R,0.6000X0.3500*%
%ADD36R,0.3500X0.6000*%
%ADD37R,1.6000X0.7000*%
%ADD38R,1.1000X1.1000*%
%ADD39R,0.8000X0.5000*%
%ADD40R,0.7000X0.5000*%
%ADD41R,1.1000X0.8000*%
%ADD42C,0.2400*%
D19*
X419360Y845500D02*
X516260D01*
X419360Y790500D02*
X516260D01*
X421900Y765100D02*
Y790500D01*
Y845500D02*
Y870900D01*
X416820Y775260D02*
X421900Y790500D01*
X426980Y775260D01*
X421900Y845500D02*
X426980Y860740D01*
X416820D02*
X421900Y845500D01*
X630000Y690880D02*
Y786760D01*
X520000Y690880D02*
Y786760D01*
X494600Y693420D02*
X520000D01*
X630000D02*
X655400D01*
X504760Y698500D02*
X520000Y693420D01*
X504760Y688340D02*
X520000Y693420D01*
X630000D02*
X645240Y688340D01*
X630000Y693420D02*
X645240Y698500D01*
D20*
X388382Y763152D02*
Y752996D01*
X395999D01*
X393460Y758074D01*
Y760613D01*
X395999Y763152D01*
X401078D01*
X403617Y760613D01*
Y755535D01*
X401078Y752996D01*
X403617Y768231D02*
X401078D01*
Y770770D01*
X403617D01*
Y768231D01*
X388382Y791083D02*
Y780927D01*
X395999D01*
X393460Y786005D01*
Y788544D01*
X395999Y791083D01*
X401078D01*
X403617Y788544D01*
Y783466D01*
X401078Y780927D01*
X390921Y796162D02*
X388382Y798701D01*
Y803779D01*
X390921Y806318D01*
X401078D01*
X403617Y803779D01*
Y798701D01*
X401078Y796162D01*
X390921D01*
X403617Y831710D02*
X398539Y826632D01*
X393460D01*
X388382Y831710D01*
X403617Y839328D02*
X393460D01*
Y841867D01*
X395999Y844406D01*
X403617D01*
X395999D01*
X393460Y846945D01*
X395999Y849484D01*
X403617D01*
Y854563D02*
X393460D01*
Y857102D01*
X395999Y859641D01*
X403617D01*
X395999D01*
X393460Y862180D01*
X395999Y864719D01*
X403617D01*
Y869798D02*
X398539Y874876D01*
X393460D01*
X388382Y869798D01*
X504917Y656854D02*
X509996D01*
X507457D01*
Y672089D01*
X504917Y669550D01*
X517613Y656854D02*
X522692D01*
X520153D01*
Y672089D01*
X517613Y669550D01*
X530309Y656854D02*
Y659393D01*
X532848D01*
Y656854D01*
X530309D01*
X543005Y669550D02*
X545544Y672089D01*
X550623D01*
X553162Y669550D01*
Y659393D01*
X550623Y656854D01*
X545544D01*
X543005Y659393D01*
Y669550D01*
X558240D02*
X560779Y672089D01*
X565858D01*
X568397Y669550D01*
Y659393D01*
X565858Y656854D01*
X560779D01*
X558240Y659393D01*
Y669550D01*
X593789Y656854D02*
X588710Y661932D01*
Y667011D01*
X593789Y672089D01*
X601406Y656854D02*
Y667011D01*
X603945D01*
X606485Y664471D01*
Y656854D01*
Y664471D01*
X609024Y667011D01*
X611563Y664471D01*
Y656854D01*
X616641D02*
Y667011D01*
X619180D01*
X621720Y664471D01*
Y656854D01*
Y664471D01*
X624259Y667011D01*
X626798Y664471D01*
Y656854D01*
X631876D02*
X636955Y661932D01*
Y667011D01*
X631876Y672089D01*
M02*
