M48
;Layer_Color=9474304
;FILE_FORMAT=4:4
METRIC
;TYPE=PLATED
T1F00S00C0.1500
%
T01
X00534670Y00805942
Y00817001
X00535940Y00829056
X00534670Y00840994
X00553720Y00836676
X00550926Y00828040
Y00807599
X00545846Y00795274
X00571500Y00803569
Y00808736
X00588828Y00806832
X00594360Y00805180
X00585000Y00799846
X00580644Y00794500
X00586994Y00815674
Y00821690
X00598932Y00831596
X00608584Y00834390
X00610108Y00829310
Y00824230
X00615442Y00822960
X00615950Y00830072
X00614426Y00807720
X00607850Y00807192
X00581109Y00841502
M30
