%FSLAX44Y44*%
%MOMM*%
G71*
G01*
G75*
G04 Layer_Physical_Order=1*
G04 Layer_Color=255*
%ADD10R,0.4000X0.9000*%
%ADD11R,1.3000X1.0000*%
%ADD12C,0.2000*%
%ADD13C,0.8000*%
G36*
X522770Y777500D02*
X528643D01*
X528759Y777219D01*
X529721Y775965D01*
X530397Y775447D01*
X530075Y774500D01*
X527000D01*
Y769270D01*
X531000D01*
Y766730D01*
X527000D01*
Y763299D01*
X520500D01*
X520412Y763262D01*
X519012Y763447D01*
X517625Y764021D01*
X516435Y764935D01*
X515521Y766125D01*
X514947Y767512D01*
X514799Y768635D01*
Y777500D01*
X520230D01*
Y784500D01*
X522770D01*
Y777500D01*
D02*
G37*
G36*
X558000Y800770D02*
X566500D01*
Y798230D01*
X558000D01*
Y792500D01*
X573201D01*
Y791500D01*
X558000D01*
Y785770D01*
X566500D01*
Y783230D01*
X558000D01*
Y777500D01*
X563260D01*
X563702Y776603D01*
X563259Y776026D01*
X562654Y774566D01*
X562448Y773000D01*
X562605Y771811D01*
X561945Y771059D01*
X561000D01*
Y774500D01*
X553559D01*
Y783284D01*
X554779Y784221D01*
X555741Y785474D01*
X556345Y786934D01*
X556552Y788500D01*
X556345Y790066D01*
X555741Y791526D01*
X554779Y792779D01*
X553526Y793741D01*
X552500Y794166D01*
Y798230D01*
X544000D01*
Y800770D01*
X552500D01*
Y804701D01*
X558000D01*
Y800770D01*
D02*
G37*
D10*
X557000Y768000D02*
D03*
X531000D02*
D03*
X537500D02*
D03*
X544000D02*
D03*
X550500D02*
D03*
D11*
X521500Y799500D02*
D03*
X566500D02*
D03*
X544000D02*
D03*
X521500Y784500D02*
D03*
X566500D02*
D03*
D12*
X563500Y768000D02*
X568500Y773000D01*
X557000Y768000D02*
X563500D01*
X550500D02*
Y788500D01*
X542500Y769500D02*
Y773743D01*
X540500Y775743D02*
X542500Y773743D01*
X540500Y775743D02*
Y776845D01*
X541000Y777345D01*
Y787497D01*
X534000Y777500D02*
X536000Y775500D01*
Y769500D02*
Y775500D01*
X539999Y788498D02*
X541000Y787497D01*
X533000Y799500D02*
X544000D01*
X542500Y769500D02*
X544000Y768000D01*
X536000Y769500D02*
X537500Y768000D01*
X532987Y780245D02*
X534000D01*
X526500Y772500D02*
X531000Y768000D01*
X526088Y772500D02*
X526500D01*
X521500Y777088D02*
X526088Y772500D01*
X521500Y777088D02*
Y784500D01*
Y799500D02*
X533000D01*
X544000D02*
X566500D01*
X521500Y784500D02*
Y799500D01*
X566500Y784500D02*
Y799500D01*
D13*
X568500Y773000D02*
D03*
X539999Y788498D02*
D03*
X534000Y780245D02*
D03*
X533000Y799500D02*
D03*
X550500Y788500D02*
D03*
M02*
