%FSLAX44Y44*%
%MOMM*%
G71*
G01*
G75*
G04 Layer_Physical_Order=2*
G04 Layer_Color=16711680*
%ADD10R,0.4000X0.9000*%
%ADD11R,1.3000X1.0000*%
%ADD12C,0.2000*%
%ADD13C,0.8000*%
%ADD14R,0.8000X1.0000*%
%ADD15R,1.0000X1.0000*%
G36*
X573201Y791000D02*
X560001D01*
Y777000D01*
X560001D01*
Y776914D01*
X558587Y775500D01*
X554059D01*
Y783662D01*
X554826Y784174D01*
X556152Y786159D01*
X556618Y788500D01*
X556152Y790841D01*
X554826Y792826D01*
X552841Y794152D01*
X550500Y794617D01*
X548159Y794152D01*
X546174Y792826D01*
X546173Y792824D01*
X544325D01*
X542340Y794150D01*
X539999Y794616D01*
X539049Y794427D01*
X537938Y796090D01*
X538652Y797159D01*
X538865Y798230D01*
X534270D01*
Y793093D01*
X535061Y791908D01*
X534347Y790839D01*
X533881Y788498D01*
X534019Y787808D01*
X532908Y786145D01*
X531659Y785897D01*
X529766Y784632D01*
X528851Y785121D01*
X528002Y785688D01*
Y791000D01*
X522272D01*
Y784000D01*
X519732D01*
Y791000D01*
X514799D01*
Y804701D01*
X527138D01*
X528081Y802937D01*
X527348Y801841D01*
X527135Y800770D01*
X538865D01*
X538652Y801841D01*
X537919Y802937D01*
X538862Y804701D01*
X573201D01*
Y791000D01*
D02*
G37*
%LPC*%
G36*
X531730Y798230D02*
X527135D01*
X527348Y797159D01*
X528674Y795174D01*
X530659Y793848D01*
X531730Y793635D01*
Y798230D01*
D02*
G37*
%LPD*%
D12*
X564000Y768500D02*
Y780500D01*
X567000Y783500D01*
X564000Y768500D02*
X568500Y773000D01*
X551000Y771000D02*
Y788000D01*
X541000Y771500D02*
X544000Y768500D01*
X541000Y771500D02*
Y787497D01*
X539999Y788498D02*
X541000Y787497D01*
X534000Y768500D02*
Y780245D01*
X521500Y788000D02*
X533000Y799500D01*
X550500Y788500D02*
X551000Y788000D01*
X521000Y771500D02*
Y784500D01*
Y771500D02*
X524000Y768500D01*
D13*
X568500Y773000D02*
D03*
X539999Y788498D02*
D03*
X534000Y780245D02*
D03*
X533000Y799500D02*
D03*
X550500Y788500D02*
D03*
D14*
X564000Y768500D02*
D03*
X554000D02*
D03*
X544000D02*
D03*
X534000D02*
D03*
X524000D02*
D03*
D15*
X521002Y784000D02*
D03*
X567001D02*
D03*
M02*
